<svg width="440" height="440" viewBox="0 0 440 440" fill="none" xmlns="http://www.w3.org/2000/svg">
<g clip-path="url(#clip0_2229_829)">
<path d="M195.238 17.0746L224.508 130.425L335.244 -19.2182L277.985 154.787L384.079 97.3418L317.155 199.3L384.079 209.213L335.244 256.267L569.551 298.502L329.125 315.836L422.245 367.709H299.856L422.245 525.652L252.498 402.916V599.895L195.238 415.369L137.979 481.676V402.916L45.8761 481.676L90.6206 367.709L-77.3148 439.78L61.3514 315.836L-60.2358 298.502L55.2325 256.267L-134.957 154.787L73.3218 199.3L27.2937 117.414L112.492 154.787L55.2325 -19.2183L165.969 130.425L195.238 17.0746Z" fill="#383434"/>
<path d="M191.417 109.588L217.297 9.36203L243.178 109.588L245.013 116.696L249.38 110.795L347.181 -21.3678L296.719 131.982L293.967 140.347L301.71 136.154L395.59 85.3218L336.288 175.668L333.281 180.248L338.701 181.051L398.583 189.921L354.875 232.035L349.944 236.785L356.682 238L563.611 275.3L350.932 290.633L339.239 291.477L349.481 297.182L430.828 342.497H321.915H314.775L319.148 348.141L426.622 486.837L276.607 378.368L271.056 374.354V381.204V555.094L220.64 392.62L218.77 386.596L214.648 391.37L163.538 450.557V381.204V373.606L157.763 378.544L76.317 448.191L115.937 347.276L118.999 339.476L111.299 342.781L-36.957 406.406L85.7425 296.734L91.3507 291.721L83.904 290.659L-23.8911 275.292L78.4934 237.842L85.846 235.153L78.9387 231.467L-89.306 141.697L94.6489 181.011L102.23 182.631L98.4314 175.874L57.5327 103.113L133.144 136.281L140.326 139.432L137.875 131.982L87.4128 -21.3679L185.214 110.795L189.581 116.696L191.417 109.588Z" fill="#FDF76F" stroke="#E22525" stroke-width="7"/>
</g>
<rect x="191.229" y="128.384" width="57.5429" height="50.733" rx="7.16429" fill="#FFDD65" stroke="#383434" stroke-width="6.74286"/>
<path d="M174.371 257.964C174.371 254.008 177.579 250.8 181.536 250.8H258.464C262.421 250.8 265.629 254.008 265.629 257.964V296.73C265.629 300.018 263.403 302.844 260.289 303.566C231.058 310.341 211.213 310.354 179.826 303.476C176.652 302.78 174.371 299.924 174.371 296.598V257.964Z" fill="#FFDD65" stroke="#383434" stroke-width="6.74286"/>
<path d="M144.871 176.906C144.871 162.475 156.57 150.777 171 150.777H269C283.43 150.777 295.129 162.475 295.129 176.906V256.271C295.129 268.735 286.364 279.46 274.228 281.442C234.68 287.901 205.44 287.772 165.893 281.385C153.7 279.416 144.871 268.664 144.871 256.156V176.906Z" fill="#FFDD65" stroke="#383434" stroke-width="6.74286"/>
<path d="M144.871 176.906C144.871 162.475 156.57 150.777 171 150.777H269C283.43 150.777 295.129 162.475 295.129 176.906V256.271C295.129 268.735 286.364 279.46 274.228 281.442C234.68 287.901 205.44 287.772 165.893 281.385C153.7 279.416 144.871 268.664 144.871 256.156V176.906Z" stroke="#383434" stroke-width="6.74286"/>
<path d="M380.79 511.972H52.8663C39.3701 460.747 76.9957 257.743 157.922 295.924C178.038 302.737 205.666 328.061 278.616 295.924C352.264 263.479 402.831 424.292 380.79 511.972Z" fill="#E22525"/>
<path d="M143.86 308.28C144.812 303.577 148.946 300.196 153.744 300.196H286.538C291.336 300.196 295.47 303.577 296.422 308.28L334.681 497.271C335.946 503.518 331.171 509.356 324.797 509.356H115.484C109.111 509.356 104.336 503.518 105.6 497.271L143.86 308.28Z" fill="#2D89DF" stroke="#383434" stroke-width="5.97601"/>
<path d="M327.5 327.136C317.249 312.569 310.692 309.208 296.499 309.208L303.222 342.45L313.477 393.988L330.114 473.922C338.481 461.97 352.525 458.235 364.477 466.825C364.477 466.825 354.766 383.535 352.525 374.944C350.284 366.354 336.436 339.835 327.5 327.136Z" fill="#2D89DF" stroke="#383434" stroke-width="5.97601" stroke-linecap="round" stroke-linejoin="round"/>
<path d="M112.477 327.136C122.727 312.569 129.284 309.208 143.477 309.208L136.754 342.45L126.5 393.988L109.862 473.922C101.496 461.97 87.452 458.235 75.5 466.825C75.5 466.825 85.211 383.535 87.452 374.944C89.693 366.354 103.54 339.835 112.477 327.136Z" fill="#2D89DF" stroke="#383434" stroke-width="5.97601" stroke-linecap="round" stroke-linejoin="round"/>
<circle cx="220" cy="369.19" r="34.2532" fill="#FFDD65"/>
<path fill-rule="evenodd" clip-rule="evenodd" d="M213.292 324.724C213.292 324.494 213.478 324.308 213.708 324.308H217.867C218.097 324.308 218.283 324.494 218.283 324.724V326.637H221.611V324.724C221.611 324.494 221.797 324.308 222.027 324.308H226.186C226.416 324.308 226.602 324.494 226.602 324.724V326.637H228.848C229.032 326.637 229.181 326.786 229.181 326.97V339.615C229.181 339.798 229.032 339.947 228.848 339.947H211.129C210.945 339.947 210.796 339.798 210.796 339.615V326.97C210.796 326.786 210.945 326.637 211.129 326.637H213.292V324.724Z" fill="#E22525"/>
<path fill-rule="evenodd" clip-rule="evenodd" d="M204.099 337.653C204.099 337.423 204.285 337.237 204.515 337.237H208.675C208.904 337.237 209.091 337.423 209.091 337.653V339.566H212.418V337.653C212.418 337.423 212.604 337.237 212.834 337.237H216.994C217.223 337.237 217.41 337.423 217.41 337.653V339.566H219.656C219.84 339.566 219.989 339.715 219.989 339.899V352.544C219.989 352.728 219.84 352.877 219.656 352.877H201.936C201.752 352.877 201.604 352.728 201.604 352.544V339.899C201.604 339.715 201.752 339.566 201.936 339.566H204.099V337.653Z" fill="#E22525"/>
<path fill-rule="evenodd" clip-rule="evenodd" d="M204.099 350.435C204.099 350.206 204.285 350.02 204.515 350.02H208.675C208.904 350.02 209.091 350.206 209.091 350.435V352.349H212.418V350.435C212.418 350.206 212.604 350.02 212.834 350.02H216.994C217.223 350.02 217.41 350.206 217.41 350.435V352.349H219.656C219.84 352.349 219.989 352.498 219.989 352.682V365.327C219.989 365.51 219.84 365.659 219.656 365.659H201.936C201.752 365.659 201.604 365.51 201.604 365.327V352.682C201.604 352.498 201.752 352.349 201.936 352.349H204.099V350.435Z" fill="#E22525"/>
<path fill-rule="evenodd" clip-rule="evenodd" d="M213.292 362.357C213.292 362.127 213.478 361.941 213.708 361.941H217.867C218.097 361.941 218.283 362.127 218.283 362.357V364.27H221.611V362.357C221.611 362.127 221.797 361.941 222.027 361.941H226.186C226.416 361.941 226.602 362.127 226.602 362.357V364.27H228.848C229.032 364.27 229.181 364.419 229.181 364.603V377.248C229.181 377.432 229.032 377.581 228.848 377.581H211.129C210.945 377.581 210.796 377.432 210.796 377.248V364.603C210.796 364.419 210.945 364.27 211.129 364.27H213.292V362.357Z" fill="#E22525"/>
<path fill-rule="evenodd" clip-rule="evenodd" d="M222.485 375.417C222.485 375.188 222.671 375.001 222.901 375.001H227.06C227.29 375.001 227.476 375.188 227.476 375.417V377.331H230.804V375.417C230.804 375.188 230.99 375.001 231.22 375.001H235.379C235.609 375.001 235.795 375.188 235.795 375.417V377.331H238.042C238.225 377.331 238.374 377.48 238.374 377.664V390.308C238.374 390.492 238.225 390.641 238.042 390.641H220.322C220.138 390.641 219.989 390.492 219.989 390.308V377.664C219.989 377.48 220.138 377.331 220.322 377.331H222.485V375.417Z" fill="#E22525"/>
<path fill-rule="evenodd" clip-rule="evenodd" d="M222.485 387.644C222.485 387.415 222.671 387.229 222.901 387.229H227.06C227.29 387.229 227.476 387.415 227.476 387.644V389.558H230.804V387.644C230.804 387.415 230.99 387.229 231.22 387.229H235.379C235.609 387.229 235.795 387.415 235.795 387.644V389.558H238.042C238.225 389.558 238.374 389.707 238.374 389.891V402.536C238.374 402.719 238.225 402.868 238.042 402.868H220.322C220.138 402.868 219.989 402.719 219.989 402.536V389.891C219.989 389.707 220.138 389.558 220.322 389.558H222.485V387.644Z" fill="#E22525"/>
<path fill-rule="evenodd" clip-rule="evenodd" d="M204.099 387.644C204.099 387.415 204.285 387.229 204.515 387.229H208.675C208.904 387.229 209.091 387.415 209.091 387.644V389.558H212.418V387.644C212.418 387.415 212.604 387.229 212.834 387.229H216.994C217.223 387.229 217.41 387.415 217.41 387.644V389.558H219.656C219.84 389.558 219.989 389.707 219.989 389.891V402.536C219.989 402.719 219.84 402.868 219.656 402.868H201.936C201.752 402.868 201.604 402.719 201.604 402.536V389.891C201.604 389.707 201.752 389.558 201.936 389.558H204.099V387.644Z" fill="#E22525"/>
<path fill-rule="evenodd" clip-rule="evenodd" d="M213.292 398.849C213.292 398.619 213.478 398.433 213.708 398.433H217.867C218.097 398.433 218.283 398.619 218.283 398.849V400.762H221.611V398.849C221.611 398.619 221.797 398.433 222.027 398.433H226.186C226.416 398.433 226.602 398.619 226.602 398.849V400.762H228.848C229.032 400.762 229.181 400.911 229.181 401.095V413.74C229.181 413.923 229.032 414.072 228.848 414.072H211.129C210.945 414.072 210.796 413.923 210.796 413.74V401.095C210.796 400.911 210.945 400.762 211.129 400.762H213.292V398.849Z" fill="#E22525"/>
<path fill-rule="evenodd" clip-rule="evenodd" d="M222.485 337.653C222.485 337.423 222.671 337.237 222.901 337.237H227.06C227.29 337.237 227.476 337.423 227.476 337.653V339.566H230.804V337.653C230.804 337.423 230.99 337.237 231.22 337.237H235.379C235.609 337.237 235.795 337.423 235.795 337.653V339.566H238.042C238.225 339.566 238.374 339.715 238.374 339.899V352.544C238.374 352.728 238.225 352.877 238.042 352.877H220.322C220.138 352.877 219.989 352.728 219.989 352.544V339.899C219.989 339.715 220.138 339.566 220.322 339.566H222.485V337.653Z" fill="#E22525"/>
<ellipse cx="197.921" cy="209.637" rx="9.02248" ry="10" fill="#383434"/>
<ellipse cx="198.83" cy="205.456" rx="2.54545" ry="2.54545" fill="white"/>
<ellipse cx="245.011" cy="209.541" rx="9" ry="10" fill="#383434"/>
<ellipse cx="245.829" cy="205.359" rx="2.29091" ry="2.54545" fill="white"/>
<path d="M268.588 192.993C261.533 188.892 252.056 189.137 231.43 196.374C227.217 197.852 225.486 193.622 227.217 191.276C239.985 186.239 265.89 183.866 269.268 192.503C269.428 192.913 268.972 193.217 268.588 192.993Z" fill="#383434"/>
<path d="M172.409 190.583C180.451 186.267 190.707 189.163 209.604 195.793C213.443 197.139 215.02 193.285 213.443 191.149C201.786 186.549 175.877 181.386 171.801 190.094C171.625 190.469 172.041 190.78 172.409 190.583Z" fill="#383434"/>
<path d="M253.393 232.712L192.727 242.657C192.727 242.657 198.293 259.741 205.772 265.533C213.252 271.325 245.891 264.824 249.642 258.421C253.393 252.018 253.393 240.298 253.393 232.712Z" fill="#383434"/>
<path d="M254.452 241.992L196.284 250.694L192.621 241.992L252.161 233.749L254.452 241.992Z" fill="white"/>
<path d="M216.533 266.526C219.142 257.904 228.533 244.616 245.228 260.441C241.749 263.556 231.141 269.134 216.533 266.526Z" fill="#E22525"/>
<path d="M249.642 258.421C253.393 252.018 253.393 240.298 253.393 232.712C253.393 232.712 235.044 237.633 223.096 239.576C211.147 241.519 192.727 242.657 192.727 242.657C192.727 242.657 198.293 259.741 205.772 265.533C213.252 271.325 245.891 264.824 249.642 258.421Z" stroke="#383434" stroke-width="5.15392"/>
<path d="M254.176 234.117C253.279 234.079 252.56 233.36 252.522 232.463L252.301 227.325C252.233 225.748 254.138 224.911 255.254 226.027L260.612 231.386C261.728 232.501 260.891 234.406 259.314 234.338L254.176 234.117Z" fill="#383434"/>
<path d="M192.921 241.657C192.975 242.554 192.334 243.342 191.445 243.473L186.358 244.221C184.796 244.45 183.768 242.641 184.763 241.416L189.543 235.536C190.538 234.311 192.519 234.949 192.614 236.524L192.921 241.657Z" fill="#383434"/>
<path opacity="0.7" d="M225.26 201.197C237.391 190.383 264.919 195.941 272.231 201.197C271.136 208.204 266.816 222.076 261.063 224.19C255.102 226.38 247.634 227.624 236.466 226.638C227.992 225.89 224.603 209.19 225.26 201.197Z" fill="#383434"/>
<path opacity="0.7" d="M215.249 200.197C203.117 189.383 175.589 194.941 168.277 200.197C169.372 207.204 173.693 221.076 179.446 223.19C185.407 225.38 192.875 226.624 204.043 225.638C212.517 224.89 215.906 208.19 215.249 200.197Z" fill="#383434"/>
<path fill-rule="evenodd" clip-rule="evenodd" d="M268.909 201.694C268.264 204.818 267.128 208.797 265.628 212.366C264.711 214.551 263.699 216.478 262.648 217.936C261.556 219.451 260.642 220.149 260.029 220.374C254.546 222.389 247.531 223.603 236.73 222.65C235.648 222.555 234.52 221.949 233.351 220.549C232.167 219.131 231.118 217.091 230.274 214.653C228.761 210.286 228.104 205.236 228.187 201.672C233.409 197.716 241.759 196.523 250.33 197.163C254.779 197.494 259.082 198.307 262.685 199.342C265.279 200.087 267.392 200.914 268.909 201.694ZM272.836 197.013C270.638 195.703 267.65 194.526 264.342 193.576C260.348 192.428 255.64 191.542 250.776 191.179C242.263 190.544 232.587 191.468 225.624 196.133C225.479 196.074 225.324 196.015 225.159 195.958C224.07 195.582 222.558 195.293 220.483 195.293C218.408 195.293 216.896 195.582 215.807 195.958C215.532 196.053 215.285 196.153 215.065 196.255C208.088 191.484 198.32 190.539 189.733 191.179C184.869 191.542 180.161 192.428 176.167 193.576C172.876 194.521 169.902 195.691 167.707 196.993L149.767 192.947C148.151 192.583 146.545 193.598 146.181 195.214C145.816 196.83 146.831 198.436 148.447 198.8L165.679 202.686C166.393 206.215 167.657 210.664 169.349 214.691C170.368 217.115 171.584 219.489 172.995 221.446C174.365 223.346 176.148 225.174 178.411 226.006C184.852 228.373 192.773 229.644 204.307 228.627C207.463 228.348 209.935 226.585 211.765 224.394C213.579 222.221 214.925 219.446 215.905 216.616C217.644 211.595 218.426 205.818 218.319 201.481C218.787 201.383 219.488 201.293 220.483 201.293C221.196 201.293 221.759 201.339 222.192 201.402C222.074 205.748 222.854 211.564 224.604 216.616C225.584 219.446 226.93 222.221 228.745 224.394C230.574 226.585 233.046 228.348 236.202 228.627C247.736 229.644 255.657 228.373 262.098 226.006C264.361 225.174 266.145 223.346 267.515 221.446C268.926 219.489 270.141 217.115 271.16 214.691C272.844 210.681 274.105 206.254 274.821 202.733L294.129 198.814C295.753 198.484 296.802 196.901 296.472 195.277C296.143 193.654 294.559 192.604 292.936 192.934L272.836 197.013ZM171.6 201.694C172.245 204.818 173.381 208.797 174.881 212.366C175.798 214.551 176.81 216.478 177.861 217.936C178.953 219.451 179.867 220.149 180.481 220.374C185.963 222.389 192.978 223.603 203.78 222.65C204.861 222.555 205.99 221.949 207.159 220.549C208.342 219.131 209.391 217.091 210.236 214.653C211.748 210.286 212.405 205.236 212.322 201.672C207.1 197.716 198.75 196.523 190.179 197.163C185.73 197.494 181.428 198.307 177.824 199.342C175.23 200.087 173.117 200.914 171.6 201.694Z" fill="#383434"/>
<path d="M144.549 233.552L133.23 228.533C128.69 224.8 127.083 217.182 126.944 209.05C126.851 203.629 127.41 197.979 128.188 193.099C128.652 190.188 129.193 187.551 129.72 185.399C125.52 184.559 126.832 170.173 128.014 163.085C127.445 162.21 125.598 160.04 122.763 158.36C119.219 156.26 133.92 136.964 136.414 134.339C138.908 131.714 129.326 128.039 126.307 122.526C123.288 117.013 134.708 108.35 136.414 110.712C138.12 113.075 147.702 110.844 153.347 110.712C157.862 110.607 172.729 98.7677 179.599 92.8611C188.629 73.4345 212.764 75.3158 223.702 78.6848C225.89 78.8598 233.258 79.4987 245.229 80.6538C260.192 82.0977 266.755 103.099 267.543 106.25C268.173 108.77 272.706 109.4 274.894 109.4C289.463 102.574 306.79 117.932 308.365 121.082C309.087 121.469 309.797 122.169 310.487 123.108C313.908 125.248 320.265 126.864 324.116 127.776C329.104 128.958 327.923 141.165 327.923 143.659C327.923 145.932 319.42 146.242 319.005 148.267C319.048 148.486 319.089 148.701 319.128 148.91C320.572 151.535 319.128 156.917 319.128 161.117C319.128 164.477 315.453 165.667 313.615 165.842C315.584 168.861 312.303 181.068 311.646 183.037C311.121 184.612 308.646 184.918 307.474 184.875C305.14 187.106 307.474 210.034 307.474 216.002C307.474 221.969 296.136 221.372 290.766 220.775C287.742 220.439 285.475 214.996 284.071 209.345C282.981 204.958 282.412 200.446 282.412 198.1C282.412 192.729 288.379 175.424 282.412 175.424C276.444 175.424 270.477 168.86 262.72 168.86C254.962 168.86 229.303 172.44 219.159 175.424C209.014 178.408 194.096 175.424 183.355 168.86C174.762 163.609 160.679 171.048 154.712 175.424C154.513 179.601 154.235 189.268 154.712 194.519C155.16 199.442 152.251 204.365 149.006 210.043C147.925 211.936 146.806 213.913 145.761 216.002C144.802 217.92 144.279 219.918 144.053 221.861C143.493 226.687 144.251 229.97 144.549 233.552Z" fill="#362424"/>
<path d="M154.712 175.424C154.513 179.601 154.235 189.268 154.712 194.519C155.16 199.442 152.251 204.365 149.006 210.043M154.712 175.424C160.679 171.048 174.762 163.609 183.355 168.86C194.096 175.424 209.014 178.408 219.159 175.424C229.303 172.44 254.962 168.86 262.72 168.86C270.477 168.86 276.444 175.424 282.412 175.424M154.712 175.424C142.468 170.174 132.949 179.887 129.72 185.399M282.412 175.424C288.379 175.424 282.412 192.729 282.412 198.1C282.412 200.446 282.981 204.958 284.071 209.345M282.412 175.424C288.719 175.359 302.561 177.159 307.474 184.875M307.474 184.875C305.14 187.106 307.474 210.034 307.474 216.002C307.474 221.969 296.136 221.372 290.766 220.775C287.742 220.439 285.475 214.996 284.071 209.345M307.474 184.875C308.646 184.918 311.121 184.612 311.646 183.037C312.303 181.068 315.584 168.861 313.615 165.842M313.615 165.842C315.453 165.667 319.128 164.477 319.128 161.117C319.128 156.917 320.572 151.535 319.128 148.91M313.615 165.842C313.615 156.842 291.011 144.986 279.709 140.183M319.128 148.91C317.684 146.284 327.923 146.153 327.923 143.659C327.923 141.165 329.104 128.958 324.116 127.776C319.128 126.595 309.94 124.233 308.365 121.082M319.128 148.91C317.581 140.727 313.262 123.705 308.365 121.082M308.365 121.082C306.79 117.932 289.463 102.574 274.894 109.4C272.706 109.4 268.173 108.77 267.543 106.25C266.755 103.099 260.192 82.0977 245.229 80.6538C233.258 79.4987 225.89 78.8598 223.702 78.6848C212.764 75.3158 188.629 73.4345 179.599 92.8611C172.729 98.7677 157.862 110.607 153.347 110.712C147.702 110.844 138.12 113.075 136.414 110.712C134.708 108.35 123.288 117.013 126.307 122.526C129.326 128.039 138.908 131.714 136.414 134.339C133.92 136.964 119.219 156.26 122.763 158.36C125.598 160.04 127.445 162.21 128.014 163.085M128.014 163.085C126.832 170.173 125.52 184.559 129.72 185.399M128.014 163.085C129.296 156.349 135.617 143.144 150.934 133.692M129.72 185.399C129.193 187.551 128.652 190.188 128.188 193.099M166.582 126.68C166.132 130.581 166.852 138.112 173.333 137.032C181.435 135.682 209.792 139.133 212.493 128.48C222.195 128.13 242.86 127.85 247.901 129.53M166.582 126.68C160.549 128.538 155.365 130.958 150.934 133.692M166.582 126.68C168.634 122.773 171.518 118.166 175.098 113.508M247.901 129.53C254.203 131.631 259.904 147.835 275.808 143.934L279.709 140.183M247.901 129.53C251.235 124.394 256.613 112.71 251.457 107.064M279.709 140.183C279.293 135.932 279.628 126.16 284.292 121.082M232.738 90.6464C208.849 80.1353 187.677 97.1384 175.098 113.508M192.079 113.508C202.052 107.268 225.834 95.5563 241.177 98.625M284.071 209.345C287.914 210.877 295.918 211.988 297.187 204.174M149.006 210.043C147.925 211.936 146.806 213.913 145.761 216.002C144.802 217.92 144.279 219.918 144.053 221.861M149.006 210.043C142.998 208.803 130.421 203.677 128.188 193.099M128.188 193.099C127.41 197.979 126.851 203.629 126.944 209.05M144.053 221.861C143.493 226.687 144.251 229.97 144.549 233.552L133.23 228.533C128.69 224.8 127.083 217.182 126.944 209.05M144.053 221.861C138.744 220.803 127.889 216.76 126.944 209.05M150.934 133.692C148.478 129.31 145.522 119.843 153.347 117.028C163.127 113.508 170.597 113.508 175.098 113.508M223.702 121.082C229.11 119.927 240.176 116.794 241.177 113.508M297.187 124.767C300.913 129.314 308.365 139.458 308.365 143.659" stroke="#1E1404" stroke-width="5" stroke-linecap="round" stroke-linejoin="round"/>
<path d="M183.356 168.86C174.763 163.609 160.68 171.048 154.713 175.424C142.469 170.174 132.95 179.887 129.721 185.399C125.52 184.559 127.342 167.883 128.014 163.085C128.014 134.174 166.582 126.68 166.582 126.68C166.132 130.581 166.852 138.112 173.334 137.032C181.436 135.682 209.793 139.133 212.493 128.48C222.196 128.13 242.861 127.85 247.902 129.53C254.203 131.631 259.905 147.835 275.808 143.934L279.709 140.183C291.012 144.986 313.616 156.842 313.616 165.842C315.585 168.861 312.303 181.068 311.647 183.037C311.122 184.612 308.647 184.918 307.475 184.875C302.562 177.159 288.719 175.359 282.412 175.424C276.445 175.424 270.478 168.86 262.72 168.86C254.963 168.86 229.304 172.44 219.159 175.424C209.015 178.408 194.097 175.424 183.356 168.86Z" fill="#1776CF" stroke="#1E1404" stroke-width="5"/>
<defs>
<clipPath id="clip0_2229_829">
<rect width="440" height="440" fill="white"/>
</clipPath>
</defs>
</svg>
