<svg width="296" height="387" viewBox="0 0 296 387" fill="none" xmlns="http://www.w3.org/2000/svg">
<rect x="119.166" y="75.3841" width="57.5429" height="50.733" rx="7.16429" fill="#FFDD65" stroke="#383434" stroke-width="6.74286"/>
<path d="M102.309 204.964C102.309 201.008 105.516 197.8 109.473 197.8H186.402C190.359 197.8 193.566 201.008 193.566 204.964V243.73C193.566 247.018 191.34 249.844 188.227 250.566C158.995 257.341 139.15 257.354 107.764 250.476C104.59 249.78 102.309 246.924 102.309 243.598V204.964Z" fill="#FFDD65" stroke="#383434" stroke-width="6.74286"/>
<path d="M72.8089 123.906C72.8089 109.475 84.5071 97.7772 98.9375 97.7772H196.937C211.368 97.7772 223.066 109.475 223.066 123.906V203.271C223.066 215.735 214.301 226.46 202.166 228.442C162.617 234.901 133.378 234.772 93.8305 228.385C81.6372 226.416 72.8089 215.664 72.8089 203.156V123.906Z" fill="#FFDD65" stroke="#383434" stroke-width="6.74286"/>
<path d="M72.8089 123.906C72.8089 109.475 84.5071 97.7772 98.9375 97.7772H196.937C211.368 97.7772 223.066 109.475 223.066 123.906V203.271C223.066 215.735 214.301 226.46 202.166 228.442C162.617 234.901 133.378 234.772 93.8305 228.385C81.6372 226.416 72.8089 215.664 72.8089 203.156V123.906Z" stroke="#383434" stroke-width="6.74286"/>
<path d="M71.7974 255.28C72.7494 250.577 76.8832 247.196 81.6814 247.196H214.475C219.273 247.196 223.407 250.577 224.359 255.28L262.619 444.271C263.883 450.518 259.108 456.356 252.735 456.356H43.4216C37.0482 456.356 32.273 450.518 33.5376 444.271L71.7974 255.28Z" fill="#383434" stroke="#383434" stroke-width="5.97601"/>
<path d="M255.437 274.136C245.187 259.569 238.63 256.208 224.437 256.208L231.16 289.45L241.414 340.988L258.052 420.922C266.418 408.97 280.462 405.235 292.414 413.825C292.414 413.825 282.703 330.535 280.462 321.944C278.221 313.354 264.374 286.835 255.437 274.136Z" fill="#FFDD65" stroke="#383434" stroke-width="5.97601" stroke-linecap="round" stroke-linejoin="round"/>
<path d="M40.4141 274.136C50.6646 259.569 57.2216 256.208 71.4146 256.208L64.6916 289.45L54.4375 340.988L37.7996 420.922C29.4332 408.97 15.3895 405.235 3.4375 413.825C3.4375 413.825 13.1485 330.535 15.3895 321.944C17.6305 313.354 31.4777 286.835 40.4141 274.136Z" fill="#FFDD65" stroke="#383434" stroke-width="5.97601" stroke-linecap="round" stroke-linejoin="round"/>
<ellipse cx="126.848" cy="156.818" rx="9.30967" ry="11.5" fill="#383434"/>
<ellipse cx="127.115" cy="152.009" rx="3.95349" ry="3.95349" fill="white"/>
<path d="M105.84 147.99C109.126 150.483 111.871 150.628 114.503 149.871M114.503 149.871C113.772 150.03 111.475 148.951 110.137 147.064M114.503 149.871C115.548 149.571 116.575 149.128 117.611 148.634M117.611 148.634C119.835 147.573 122.1 146.274 124.67 145.631C130.098 144.274 134.062 148.634 135.803 150.688C136.191 151.146 137.148 152.149 138.183 152.615C133.636 152.615 131.867 146.517 126.955 146.517C122.043 146.517 120.232 150.273 116.204 151.022C114.467 151.345 111.927 150.574 110.137 150.094M117.611 148.634C116.633 148.819 114.503 147.99 113.529 146.517" stroke="#383434" stroke-width="2.33195" stroke-linecap="round" stroke-linejoin="round"/>
<ellipse cx="9.30967" cy="11.5" rx="9.30967" ry="11.5" transform="matrix(-1 0 0 1 181.578 144.821)" fill="#383434"/>
<ellipse cx="3.95349" cy="3.95349" rx="3.95349" ry="3.95349" transform="matrix(-1 0 0 1 175.954 147.559)" fill="white"/>
<path d="M193.275 147.493C189.989 149.986 187.244 150.131 184.612 149.374M184.612 149.374C185.344 149.533 187.64 148.454 188.978 146.567M184.612 149.374C183.567 149.074 182.541 148.631 181.505 148.137M181.505 148.137C179.281 147.076 177.016 145.777 174.445 145.134C169.017 143.777 165.053 148.137 163.313 150.191C162.925 150.649 161.967 151.652 160.933 152.118C165.479 152.118 167.248 146.02 172.16 146.02C177.073 146.02 178.883 149.776 182.911 150.525C184.648 150.848 187.188 150.077 188.978 149.597M181.505 148.137C182.482 148.322 184.612 147.493 185.587 146.02" stroke="#383434" stroke-width="2.38162" stroke-linecap="round" stroke-linejoin="round"/>
<path d="M104.367 140.724C110.861 137.491 118.246 132.723 135.058 140.132C135.211 140.199 135.397 140.177 135.509 140.05C136.278 139.184 137.841 136.496 137.043 135.251C127.956 128.637 108.665 129.177 103.816 140.227C103.662 140.576 104.022 140.896 104.367 140.724Z" fill="#383434"/>
<path d="M191.628 140.595C185.143 137.443 178.552 132.039 161.932 139.836C161.781 139.907 161.594 139.889 161.478 139.766C160.709 138.955 159.222 136.54 160.066 135.119C168.268 128.247 187.082 129.115 192.166 140.091C192.327 140.437 191.975 140.763 191.628 140.595Z" fill="#383434"/>
<path d="M142.082 182.766C139.299 182.592 133.964 187.333 131.645 189.725C125.629 187.405 115.51 185.463 123.164 196.248C132.732 209.73 138.586 216.428 150.78 216.428C166.035 216.428 178.831 196.248 179.701 193.856C180.397 191.943 175.787 191.174 173.395 191.03C169.988 188.275 162.392 182.766 159.261 182.766C155.347 182.766 152.737 186.681 150.78 186.681C148.823 186.681 145.561 182.984 142.082 182.766Z" fill="#E22525"/>
<path d="M151.566 208.78C142.706 210.045 126.253 195.596 119.134 188.213C138.08 194.201 167.489 192.4 181.624 188.213C178.46 194.542 162.64 207.198 151.566 208.78Z" fill="white" stroke="#383434" stroke-width="4.24724" stroke-linejoin="round"/>
<path fill-rule="evenodd" clip-rule="evenodd" d="M196.846 148.694C196.201 151.818 195.066 155.797 193.566 159.366C192.648 161.551 191.637 163.478 190.586 164.936C189.493 166.451 188.579 167.149 187.966 167.374C182.484 169.389 175.469 170.603 164.667 169.65C163.586 169.555 162.457 168.949 161.288 167.549C160.104 166.131 159.056 164.091 158.211 161.653C156.699 157.286 156.042 152.236 156.125 148.672C161.347 144.716 169.696 143.523 178.267 144.163C182.716 144.494 187.019 145.307 190.623 146.342C193.217 147.087 195.33 147.914 196.846 148.694ZM200.736 143.991C198.542 142.69 195.569 141.521 192.279 140.576C188.286 139.428 183.578 138.542 178.714 138.179C170.2 137.544 160.525 138.468 153.561 143.133C153.416 143.074 153.262 143.015 153.097 142.958C152.008 142.582 150.495 142.293 148.421 142.293C146.346 142.293 144.834 142.582 143.745 142.958C143.469 143.053 143.223 143.153 143.002 143.255C136.026 138.484 126.257 137.539 117.671 138.179C112.807 138.542 108.098 139.428 104.105 140.576C100.8 141.525 97.8147 142.701 95.6174 144.009L74.2012 139.571C72.5788 139.235 70.991 140.278 70.6548 141.9C70.3186 143.522 71.3613 145.11 72.9836 145.446L93.6243 149.724C94.3392 153.247 95.601 157.678 97.2869 161.691C98.3053 164.115 99.5213 166.489 100.932 168.446C102.302 170.346 104.086 172.174 106.349 173.006C112.79 175.373 120.71 176.644 132.245 175.627C135.4 175.348 137.873 173.585 139.702 171.394C141.517 169.221 142.863 166.446 143.843 163.616C145.582 158.595 146.364 152.818 146.257 148.481C146.724 148.383 147.426 148.293 148.421 148.293C149.134 148.293 149.696 148.339 150.13 148.402C150.011 152.748 150.792 158.564 152.541 163.616C153.521 166.446 154.868 169.221 156.682 171.394C158.511 173.585 160.984 175.348 164.14 175.627C175.674 176.644 183.595 175.373 190.035 173.006C192.298 172.174 194.082 170.346 195.452 168.446C196.863 166.489 198.079 164.115 199.097 161.691C200.79 157.662 202.055 153.211 202.768 149.682L222.96 145.082C224.575 144.714 225.587 143.106 225.219 141.491C224.851 139.875 223.243 138.864 221.627 139.232L200.736 143.991ZM99.5379 148.694C100.183 151.818 101.319 155.797 102.818 159.366C103.736 161.551 104.747 163.478 105.799 164.936C106.891 166.451 107.805 167.149 108.418 167.374C113.9 169.389 120.915 170.603 131.717 169.65C132.798 169.555 133.927 168.949 135.096 167.549C136.28 166.131 137.329 164.091 138.173 161.653C139.686 157.286 140.342 152.236 140.26 148.672C135.038 144.716 126.688 143.523 118.117 144.163C113.668 144.494 109.365 145.307 105.762 146.342C103.168 147.087 101.055 147.914 99.5379 148.694Z" fill="#383434"/>
<path d="M122.836 107.048C134.637 113.628 156.742 117.78 175.026 99.5093C175.026 99.5093 195.635 100.215 198.263 111.738C198.263 124.27 209.144 128.688 213.985 139.691C218.826 150.694 208.099 151.885 213.985 167.547C218.138 178.6 208.099 191.434 208.099 191.434C208.099 191.434 187.905 213.176 189.424 231.336C190.943 249.496 209.09 252.315 198.263 272.922C187.435 293.528 205.453 303.867 184.492 328.176C187.681 337.763 205.134 331.541 213.985 328.176C229.361 322.33 248.116 296.347 243.577 272.922C239.038 249.496 262.466 237.75 251.749 206.805C244.502 185.882 254.193 171.848 243.577 155.775C236.459 144.997 238.003 124.522 229.277 99.5093C222.297 79.4988 198.263 48.299 177.871 57.5142C170.545 43.0185 143.637 43.0189 133.671 43.019L133.575 43.019C123.686 43.019 94.4753 43.019 87.4949 62.923C83.3469 74.7506 78.2632 66.8877 67.2104 82.0119C56.1577 97.136 58.0025 109.14 55.6757 126.009C54.2468 136.369 35.3643 156.742 35.3643 171.848C35.3643 186.953 41.8548 191.426 40.2535 206.805C39.0349 218.508 35.3651 224.957 35.3647 239.075C35.3643 253.192 44.1666 264.022 50.6434 272.922C56.9305 281.561 56.7324 289.133 60.7368 299.811C71.2073 327.733 114.692 344.678 122.836 341.769C130.98 338.861 98.5809 315.555 98.5809 290.652C98.5809 282.063 109.317 267.638 109.317 250.187C109.317 232.027 93.1052 214.248 87.4949 206.805C75.6331 191.067 83.2436 184.746 87.4949 171.848C91.7462 158.949 76.9116 149.127 83.2436 139.691C87.7582 132.963 91.3362 130.444 91.3362 118.746C91.3362 107.048 109.317 99.5093 122.836 107.048Z" fill="#F0B84B"/>
<path d="M175.026 99.5093C156.742 117.78 134.637 113.628 122.836 107.048C109.317 99.5093 91.3362 107.048 91.3362 118.746C91.3362 130.444 87.7582 132.963 83.2436 139.691C76.9116 149.127 91.7462 158.949 87.4949 171.848C83.2436 184.746 75.6331 191.067 87.4949 206.805C93.1052 214.248 109.317 232.027 109.317 250.187C109.317 267.638 98.5809 282.063 98.5809 290.652C98.5809 315.555 130.98 338.861 122.836 341.769C114.692 344.678 71.2073 327.733 60.7368 299.811C56.7324 289.133 56.9305 281.561 50.6434 272.922C44.1666 264.022 35.3643 253.192 35.3647 239.075C35.3651 224.957 39.0349 218.508 40.2535 206.805C41.8548 191.426 35.3643 186.953 35.3643 171.848C35.3643 156.742 54.2468 136.369 55.6757 126.009C58.0025 109.14 56.1577 97.136 67.2104 82.0119C78.2632 66.8877 83.3469 74.7506 87.4949 62.923C94.4753 43.019 123.686 43.019 133.575 43.019C143.463 43.019 170.522 42.9717 177.871 57.5142M175.026 99.5093C175.026 99.5093 195.635 100.215 198.263 111.738C198.263 124.27 209.144 128.688 213.985 139.691C218.826 150.694 208.099 151.885 213.985 167.547C218.138 178.6 208.099 191.434 208.099 191.434C208.099 191.434 187.905 213.176 189.424 231.336C190.943 249.496 209.091 252.315 198.263 272.922C187.435 293.528 205.453 303.867 184.492 328.176C187.681 337.763 205.134 331.541 213.985 328.176C229.361 322.33 248.116 296.347 243.577 272.922C239.038 249.496 262.466 237.75 251.749 206.805C244.502 185.882 254.193 171.848 243.577 155.775C236.459 144.997 238.003 124.522 229.277 99.5093C222.297 79.4988 198.263 48.299 177.871 57.5142M175.026 99.5093C176.907 97.6292 184.908 87.6257 171.293 83.3731C168.283 81.9555 160.76 80.0157 151.667 82.0119M177.871 57.5142C181.308 60.5864 184.899 66.5993 184.492 70.2567M62.6757 259.693C64.1798 273.875 81.3391 286.444 83.9116 303.596M85.2436 235.075C88.0778 237.837 92.8959 245.149 89.4949 252.298M145.71 62.923C135.259 60.9955 113.349 59.7637 109.317 70.2567M222.042 265.41C233.598 292.595 212.193 307.516 208.099 315.997M198.263 88.7832C203.503 91.6396 213.985 100.229 213.985 111.738M62.6757 152.221C58.3153 159.619 53.8285 167.397 55.6757 177.757C57.8219 189.794 65.798 200.576 60.7368 206.805M222.042 199.065C215.433 204.526 203.39 217.811 208.099 227.262M237.799 217.854C242.07 225.789 240.701 235.075 233.313 239.075" stroke="#B27A0D" stroke-width="7" stroke-linecap="round" stroke-linejoin="round"/>
</svg>
