<svg width="296" height="387" viewBox="0 0 296 387" fill="none" xmlns="http://www.w3.org/2000/svg">
<rect x="119.463" y="75.3841" width="57.5429" height="50.733" rx="7.16429" fill="#FFDD65" stroke="#383434" stroke-width="6.74286"/>
<path d="M102.606 204.964C102.606 201.008 105.813 197.8 109.77 197.8H186.699C190.655 197.8 193.863 201.008 193.863 204.964V243.73C193.863 247.018 191.637 249.844 188.524 250.566C159.292 257.341 139.447 257.354 108.061 250.476C104.886 249.78 102.606 246.924 102.606 243.598V204.964Z" fill="#FFDD65" stroke="#383434" stroke-width="6.74286"/>
<path d="M73.1058 123.906C73.1058 109.475 84.804 97.7772 99.2344 97.7772H197.234C211.665 97.7772 223.363 109.475 223.363 123.906V203.271C223.363 215.735 214.598 226.46 202.463 228.442C162.914 234.901 133.675 234.772 94.1274 228.385C81.9341 226.416 73.1058 215.664 73.1058 203.156V123.906Z" fill="#FFDD65" stroke="#383434" stroke-width="6.74286"/>
<path d="M73.1058 123.906C73.1058 109.475 84.804 97.7772 99.2344 97.7772H197.234C211.665 97.7772 223.363 109.475 223.363 123.906V203.271C223.363 215.735 214.598 226.46 202.463 228.442C162.914 234.901 133.675 234.772 94.1274 228.385C81.9341 226.416 73.1058 215.664 73.1058 203.156V123.906Z" stroke="#383434" stroke-width="6.74286"/>
<path d="M72.0943 255.28C73.0463 250.577 77.1801 247.196 81.9783 247.196H214.772C219.57 247.196 223.704 250.577 224.656 255.28L262.916 444.271C264.18 450.518 259.405 456.356 253.032 456.356H43.7185C37.345 456.356 32.5699 450.518 33.8345 444.271L72.0943 255.28Z" fill="#C4C4C4" stroke="#383434" stroke-width="5.97601"/>
<path d="M255.734 274.136C245.484 259.569 238.927 256.208 224.734 256.208L231.457 289.45L241.711 340.988L258.349 420.922C266.715 408.97 280.759 405.235 292.711 413.825C292.711 413.825 283 330.535 280.759 321.944C278.518 313.354 264.671 286.835 255.734 274.136Z" fill="#FFDD65" stroke="#383434" stroke-width="5.97601" stroke-linecap="round" stroke-linejoin="round"/>
<path d="M40.711 274.136C50.9615 259.569 57.5185 256.208 71.7115 256.208L64.9885 289.45L54.7344 340.988L38.0964 420.922C29.73 408.97 15.6864 405.235 3.73438 413.825C3.73438 413.825 13.4454 330.535 15.6864 321.944C17.9274 313.354 31.7746 286.835 40.711 274.136Z" fill="#FFDD65" stroke="#383434" stroke-width="5.97601" stroke-linecap="round" stroke-linejoin="round"/>
<ellipse cx="127.145" cy="156.818" rx="9.30967" ry="11.5" fill="#383434"/>
<ellipse cx="127.411" cy="152.009" rx="3.95349" ry="3.95349" fill="white"/>
<path d="M106.137 147.99C109.423 150.483 112.168 150.628 114.8 149.871M114.8 149.871C114.068 150.03 111.772 148.951 110.434 147.064M114.8 149.871C115.845 149.571 116.872 149.128 117.907 148.634M117.907 148.634C120.131 147.573 122.397 146.274 124.967 145.631C130.395 144.274 134.359 148.634 136.099 150.688C136.488 151.146 137.445 152.149 138.479 152.615C133.933 152.615 132.164 146.517 127.252 146.517C122.34 146.517 120.529 150.273 116.501 151.022C114.764 151.345 112.224 150.574 110.434 150.094M117.907 148.634C116.93 148.819 114.8 147.99 113.826 146.517" stroke="#383434" stroke-width="2.33195" stroke-linecap="round" stroke-linejoin="round"/>
<ellipse cx="9.30967" cy="11.5" rx="9.30967" ry="11.5" transform="matrix(-1 0 0 1 181.875 144.821)" fill="#383434"/>
<ellipse cx="3.95349" cy="3.95349" rx="3.95349" ry="3.95349" transform="matrix(-1 0 0 1 176.251 147.559)" fill="white"/>
<path d="M193.572 147.493C190.286 149.986 187.541 150.131 184.909 149.374M184.909 149.374C185.641 149.533 187.937 148.454 189.275 146.567M184.909 149.374C183.864 149.074 182.837 148.631 181.802 148.137M181.802 148.137C179.578 147.076 177.312 145.777 174.742 145.134C169.314 143.777 165.35 148.137 163.61 150.191C163.221 150.649 162.264 151.652 161.23 152.118C165.776 152.118 167.545 146.02 172.457 146.02C177.369 146.02 179.18 149.776 183.208 150.525C184.945 150.848 187.485 150.077 189.275 149.597M181.802 148.137C182.779 148.322 184.909 147.493 185.883 146.02" stroke="#383434" stroke-width="2.38162" stroke-linecap="round" stroke-linejoin="round"/>
<path d="M153.873 141.754C152.265 139.121 153.158 136.137 153.873 134.401C166.024 128.554 185.632 129.034 190.719 136.401L192.211 143.754C182.53 134.401 155.138 143.825 153.873 141.754Z" fill="#383434"/>
<path d="M141.079 136.754C142.687 134.121 141.794 131.137 141.079 129.401C128.929 123.554 109.32 124.034 104.234 131.401L102.741 138.754C112.422 129.401 139.815 138.825 141.079 136.754Z" fill="#383434"/>
<path d="M145.724 201.37C139.246 200.568 132.228 197.025 129.529 195.354C133.081 200.161 146.287 208.096 170.692 201.37C165.068 201.704 152.202 202.172 145.724 201.37Z" stroke="#383434" stroke-width="6" stroke-linecap="round" stroke-linejoin="round"/>
<path fill-rule="evenodd" clip-rule="evenodd" d="M197.143 148.694C196.498 151.818 195.363 155.797 193.863 159.366C192.945 161.551 191.934 163.478 190.882 164.936C189.79 166.451 188.876 167.149 188.263 167.374C182.781 169.389 175.766 170.603 164.964 169.65C163.883 169.555 162.754 168.949 161.585 167.549C160.401 166.131 159.352 164.091 158.508 161.653C156.996 157.286 156.339 152.236 156.422 148.672C161.643 144.716 169.993 143.523 178.564 144.163C183.013 144.494 187.316 145.307 190.92 146.342C193.513 147.087 195.627 147.914 197.143 148.694ZM201.033 143.991C198.838 142.69 195.866 141.521 192.576 140.576C188.583 139.428 183.874 138.542 179.011 138.179C170.497 137.544 160.822 138.468 153.858 143.133C153.713 143.074 153.559 143.015 153.394 142.958C152.305 142.582 150.792 142.293 148.717 142.293C146.643 142.293 145.13 142.582 144.041 142.958C143.766 143.053 143.52 143.153 143.299 143.255C136.323 138.484 126.554 137.539 117.967 138.179C113.104 138.542 108.395 139.428 104.402 140.576C101.097 141.525 98.1116 142.701 95.9143 144.009L74.498 139.571C72.8756 139.235 71.2879 140.278 70.9517 141.9C70.6155 143.522 71.6581 145.11 73.2805 145.446L93.9212 149.724C94.6361 153.247 95.8978 157.678 97.5837 161.691C98.6022 164.115 99.8182 166.489 101.229 168.446C102.599 170.346 104.383 172.174 106.646 173.006C113.086 175.373 121.007 176.644 132.541 175.627C135.697 175.348 138.17 173.585 139.999 171.394C141.814 169.221 143.16 166.446 144.14 163.616C145.879 158.595 146.661 152.818 146.553 148.481C147.021 148.383 147.723 148.293 148.718 148.293C149.431 148.293 149.993 148.339 150.427 148.402C150.308 152.748 151.089 158.564 152.838 163.616C153.818 166.446 155.165 169.221 156.979 171.394C158.808 173.585 161.281 175.348 164.437 175.627C175.971 176.644 183.892 175.373 190.332 173.006C192.595 172.174 194.379 170.346 195.749 168.446C197.16 166.489 198.376 164.115 199.394 161.691C201.087 157.662 202.352 153.211 203.065 149.682L223.257 145.082C224.872 144.714 225.883 143.106 225.515 141.491C225.147 139.875 223.539 138.864 221.924 139.232L201.033 143.991ZM99.8348 148.694C100.48 151.818 101.615 155.797 103.115 159.366C104.033 161.551 105.044 163.478 106.096 164.936C107.188 166.451 108.102 167.149 108.715 167.374C114.197 169.389 121.212 170.603 132.014 169.65C133.095 169.555 134.224 168.949 135.393 167.549C136.577 166.131 137.626 164.091 138.47 161.653C139.982 157.286 140.639 152.236 140.557 148.672C135.335 144.716 126.985 143.523 118.414 144.163C113.965 144.494 109.662 145.307 106.058 146.342C103.465 147.087 101.351 147.914 99.8348 148.694Z" fill="#383434"/>
<path d="M199.584 108.63C206.845 111.883 209.88 122.86 211.879 141.827C213.879 160.794 213.531 175.737 216.189 177.837C218.847 179.937 222.082 180.572 224.174 177.837C226.266 175.102 226.787 165.748 230.006 155.062C232.17 147.879 236.519 134.188 237.887 129.327C239.841 122.383 240.549 117.068 238.777 111.266C237.963 108.602 236.286 105.424 234.025 102.119C227.919 93.1899 217.557 83.3313 208.472 80.148C191.671 45.2463 126.46 48.4536 104.186 57.4172C81.9121 66.3809 79.4075 77.2321 75.5363 80.148C71.6291 83.0911 68.0923 86.8292 65.228 90.5879C62.0494 94.759 59.6988 98.9555 58.5889 102.119C56.2923 108.664 50.4707 118.232 58.5889 139.876C59.7252 142.379 61.002 145.83 62.3221 149.646C66.1542 160.722 70.3517 174.871 72.5399 177.837C75.4576 181.792 78.2851 181 81.9921 179.963L82.0851 179.937C85.8379 178.887 83.3101 162.587 85.26 149.646C87.21 136.704 87.5105 130.77 93.7784 122.86C102.002 115.113 112.533 109.902 124.24 106.646C149.514 99.617 174.726 103.278 199.584 108.63Z" fill="#2F2F1D"/>
<path d="M199.584 108.63C206.845 111.883 209.88 122.86 211.879 141.827C213.879 160.794 213.531 175.737 216.189 177.837C218.847 179.937 222.082 180.572 224.174 177.837C226.266 175.102 226.787 165.748 230.006 155.062M199.584 108.63C174.726 103.278 149.514 99.617 124.24 106.646M199.584 108.63C201.282 105.701 203.389 99.8628 204.562 96.5907M199.584 108.63C202.928 110.129 208.472 105.546 218.789 118.232C224.915 125.764 230.006 135.869 230.006 155.062M93.7784 122.86C82.0851 126.863 64.2285 127.388 54.4467 118.232M93.7784 122.86C87.5105 130.77 87.21 136.704 85.26 149.646M93.7784 122.86C102.002 115.113 112.533 109.902 124.24 106.646M58.5889 102.119C56.2922 108.664 50.4707 118.232 58.5889 139.876C63.0236 149.646 69.5979 173.849 72.5399 177.837C75.482 181.825 78.3323 180.987 82.0851 179.937C85.8379 178.887 83.3101 162.587 85.26 149.646M58.5889 102.119C59.7506 115.241 103.325 112.249 124.24 106.646M58.5889 102.119C59.6988 98.9555 62.0494 94.759 65.228 90.5879M208.472 80.148C191.671 45.2463 126.46 48.4536 104.186 57.4172C81.9121 66.3809 79.4076 77.2321 75.5363 80.148M208.472 80.148C208.472 82.6684 207.632 83.2561 207.044 85.6068M208.472 80.148C217.557 83.3313 227.919 93.1899 234.025 102.119C236.286 105.424 237.963 108.602 238.777 111.266C240.549 117.068 239.841 122.383 237.887 129.327M85.26 149.646C78.5299 152.214 71.592 157.059 62.3221 149.646M230.006 155.062C232.17 147.879 236.519 134.188 237.887 129.327M204.562 96.5907C199.777 88.8263 177.073 85.6919 151.151 87.0261C120.981 88.579 115.051 100.063 91.8723 95.6035C80.9218 93.4965 70.6056 89.1939 65.228 90.5879M204.562 96.5907C205.657 93.5346 207.912 90.1112 207.044 85.6068M204.562 96.5907C210.871 94.1048 229.665 106.646 237.887 129.327M65.228 90.5879C68.0924 86.8292 71.6291 83.0911 75.5363 80.148M207.044 85.6068C203.902 80.7171 198.182 74.4433 188.663 71.2703C173.995 66.381 147.918 61.22 119.126 71.2703C97.2184 78.9172 84.1002 83.8647 75.5363 80.148" stroke="#080707" stroke-width="7" stroke-linecap="round"/>
</svg>
