<svg width="296" height="216" viewBox="0 0 296 216" fill="none" xmlns="http://www.w3.org/2000/svg">
<path d="M71.8599 11.0716C72.8119 6.36879 76.9457 2.98801 81.7439 2.98801H214.538C219.336 2.98801 223.47 6.36878 224.422 11.0716L262.681 200.063C263.946 206.31 259.171 212.148 252.797 212.148H43.4841C37.1107 212.148 32.3355 206.31 33.6001 200.063L71.8599 11.0716Z" fill="white" stroke="#383434" stroke-width="5.97601"/>
<path d="M255.5 29.928C245.249 15.3615 238.692 12 224.499 12L231.222 45.2416L241.477 96.7799L258.114 176.714C266.481 164.762 280.525 161.027 292.477 169.617C292.477 169.617 282.766 86.3267 280.525 77.7362C278.284 69.1456 264.436 42.6271 255.5 29.928Z" fill="#FFDD65" stroke="#383434" stroke-width="5.97601" stroke-linecap="round" stroke-linejoin="round"/>
<path d="M40.4766 29.928C50.7271 15.3615 57.2841 12 71.4771 12L64.7541 45.2416L54.5 96.7799L37.8621 176.714C29.4957 164.762 15.452 161.027 3.5 169.617C3.5 169.617 13.211 86.3267 15.452 77.7362C17.693 69.1456 31.5402 42.6271 40.4766 29.928Z" fill="#FFDD65" stroke="#383434" stroke-width="5.97601" stroke-linecap="round" stroke-linejoin="round"/>
<path fill-rule="evenodd" clip-rule="evenodd" d="M103.784 49.2609C103.784 48.5805 104.336 48.0288 105.017 48.0288H117.338C118.018 48.0288 118.57 48.5805 118.57 49.2609V54.9287H128.427V49.2609C128.427 48.5805 128.979 48.0288 129.659 48.0288H141.98C142.661 48.0288 143.212 48.5805 143.212 49.2609V54.9287H153.069V49.2609C153.069 48.5805 153.621 48.0288 154.302 48.0288H166.623C167.303 48.0288 167.855 48.5805 167.855 49.2609V54.9287H177.712V49.2609C177.712 48.5805 178.264 48.0288 178.944 48.0288H191.265C191.946 48.0288 192.497 48.5805 192.497 49.2609V54.9287H199.644C200.188 54.9287 200.629 55.37 200.629 55.9144V93.371C200.629 93.9154 200.188 94.3567 199.644 94.3567H96.638C96.0937 94.3567 95.6523 93.9154 95.6523 93.371V55.9144C95.6523 55.37 96.0937 54.9287 96.638 54.9287H103.784V49.2609Z" fill="#E22525"/>
</svg>
